<svg xmlns="http://www.w3.org/2000/svg" viewBox="0 0 50 50"><defs><style>.a{fill:#63d45f;}</style></defs><title>klaviyo-logo</title><path class="a" d="M34.1,33.8l4.3-2.9a15.28,15.28,0,0,0-13-7.5c-8.6,0-13.3,6.9-13.7,7.5l4.4,2.9c.4-.6,3.4-5.1,9-5.1,5.8,0,8.9,4.9,9,5.1Z"/><path class="a" d="M45.2,23.5l-18-11.9a4,4,0,0,0-2.2-1,4.76,4.76,0,0,0-2.4,1.1L5.3,23.1s-1.5.8-1.5,1.9,1.5,1.7,1.5,1.7L7.2,28a21.82,21.82,0,0,1,18.1-9.9A20.24,20.24,0,0,1,42.8,28l2.6-1.7a1.79,1.79,0,0,0,.9-1.4,2.09,2.09,0,0,0-1.1-1.4ZM29.7,36.8A5.32,5.32,0,0,0,24.9,34a4.64,4.64,0,0,0-4.5,2.7l3.1,2.1a5.29,5.29,0,0,0,1.5.7,4.91,4.91,0,0,0,1.3-.3l3.4-2.4Z"/></svg>